<svg xmlns="http://www.w3.org/2000/svg" xmlns:xlink="http://www.w3.org/1999/xlink" width="128" zoomAndPan="magnify" viewBox="0 0 96 34.499999" height="46" preserveAspectRatio="xMidYMid meet" version="1.0"><defs><g/><clipPath id="ddc0c2cb12"><path d="M 4.824219 3.679688 L 31.75 3.679688 L 31.75 30.605469 L 4.824219 30.605469 Z M 4.824219 3.679688 " clip-rule="nonzero"/></clipPath><clipPath id="874f3f2de2"><path d="M 18.289062 3.679688 C 10.851562 3.679688 4.824219 9.707031 4.824219 17.140625 C 4.824219 24.578125 10.851562 30.605469 18.289062 30.605469 L 31.75 30.605469 L 31.75 17.140625 C 31.75 9.707031 25.722656 3.679688 18.289062 3.679688 Z M 18.289062 3.679688 " clip-rule="nonzero"/></clipPath><clipPath id="0882f62292"><path d="M 0.824219 0.679688 L 27.75 0.679688 L 27.75 27.605469 L 0.824219 27.605469 Z M 0.824219 0.679688 " clip-rule="nonzero"/></clipPath><clipPath id="1ee04ac344"><path d="M 14.289062 0.679688 C 6.851562 0.679688 0.824219 6.707031 0.824219 14.140625 C 0.824219 21.578125 6.851562 27.605469 14.289062 27.605469 L 27.75 27.605469 L 27.75 14.140625 C 27.75 6.707031 21.722656 0.679688 14.289062 0.679688 Z M 14.289062 0.679688 " clip-rule="nonzero"/></clipPath><clipPath id="aa25171031"><rect x="0" width="28" y="0" height="28"/></clipPath><clipPath id="c4468edc69"><rect x="0" width="58" y="0" height="15"/></clipPath><clipPath id="bb133b7823"><rect x="0" width="48" y="0" height="15"/></clipPath><clipPath id="e9bfbbf379"><path d="M 10.15625 8.140625 L 27.902344 8.140625 L 27.902344 25.882812 L 10.15625 25.882812 Z M 10.15625 8.140625 " clip-rule="nonzero"/></clipPath></defs><g clip-path="url(#ddc0c2cb12)"><g clip-path="url(#874f3f2de2)"><g transform="matrix(1, 0, 0, 1, 4, 3)"><g clip-path="url(#aa25171031)"><g clip-path="url(#0882f62292)"><g clip-path="url(#1ee04ac344)"><path fill="#ffffff" d="M 0.824219 0.679688 L 27.75 0.679688 L 27.75 27.605469 L 0.824219 27.605469 Z M 0.824219 0.679688 " fill-opacity="1" fill-rule="nonzero"/></g></g></g></g></g></g><g transform="matrix(1, 0, 0, 1, 37, 7)"><g clip-path="url(#c4468edc69)"><g fill="#ffffff" fill-opacity="1"><g transform="translate(0.593473, 10.444253)"><g><path d="M 0.75 0 L 0.75 -8.078125 L 2.234375 -8.078125 L 2.234375 -4.828125 L 5.125 -4.828125 L 5.125 -8.078125 L 6.625 -8.078125 L 6.625 0 L 5.125 0 L 5.125 -3.390625 L 2.234375 -3.390625 L 2.234375 0 Z M 0.75 0 "/></g></g></g><g fill="#ffffff" fill-opacity="1"><g transform="translate(8.628588, 10.444253)"><g><path d="M 5.984375 -6.0625 L 5.984375 0 L 4.640625 0 L 4.640625 -0.578125 C 4.367188 -0.304688 4.097656 -0.117188 3.828125 -0.015625 C 3.566406 0.0859375 3.253906 0.140625 2.890625 0.140625 C 2.078125 0.140625 1.460938 -0.15625 1.046875 -0.75 C 0.878906 -1.007812 0.757812 -1.289062 0.6875 -1.59375 C 0.625 -1.894531 0.59375 -2.300781 0.59375 -2.8125 L 0.59375 -6.0625 L 2.046875 -6.0625 L 2.046875 -3.09375 C 2.046875 -2.332031 2.144531 -1.828125 2.34375 -1.578125 C 2.53125 -1.316406 2.8125 -1.1875 3.1875 -1.1875 C 3.707031 -1.1875 4.078125 -1.375 4.296875 -1.75 C 4.453125 -1.976562 4.53125 -2.460938 4.53125 -3.203125 L 4.53125 -6.0625 Z M 5.984375 -6.0625 "/></g></g></g><g fill="#ffffff" fill-opacity="1"><g transform="translate(15.788553, 10.444253)"><g><path d="M 6.71875 -6.0625 L 6.71875 0 L 5.390625 0 L 5.390625 -0.78125 C 5.097656 -0.457031 4.796875 -0.222656 4.484375 -0.078125 C 4.171875 0.0664062 3.800781 0.140625 3.375 0.140625 C 2.5 0.140625 1.769531 -0.15625 1.1875 -0.75 C 0.613281 -1.34375 0.328125 -2.09375 0.328125 -3 C 0.328125 -3.925781 0.613281 -4.691406 1.1875 -5.296875 C 1.769531 -5.898438 2.507812 -6.203125 3.40625 -6.203125 C 4.25 -6.203125 4.910156 -5.882812 5.390625 -5.25 L 5.390625 -6.0625 Z M 4.84375 -4.328125 C 4.507812 -4.679688 4.082031 -4.859375 3.5625 -4.859375 C 3.039062 -4.859375 2.613281 -4.679688 2.28125 -4.328125 C 1.957031 -3.984375 1.796875 -3.53125 1.796875 -2.96875 C 1.796875 -2.4375 1.957031 -2.003906 2.28125 -1.671875 C 2.613281 -1.347656 3.050781 -1.1875 3.59375 -1.1875 C 4.164062 -1.1875 4.601562 -1.367188 4.90625 -1.734375 C 5.195312 -2.078125 5.34375 -2.492188 5.34375 -2.984375 C 5.34375 -3.535156 5.175781 -3.984375 4.84375 -4.328125 Z M 4.84375 -4.328125 "/></g></g></g><g fill="#ffffff" fill-opacity="1"><g transform="translate(23.604882, 10.444253)"><g><path d="M 0.59375 0 L 0.59375 -6.0625 L 1.9375 -6.0625 L 1.9375 -5.484375 C 2.4375 -5.960938 3.003906 -6.203125 3.640625 -6.203125 C 4.503906 -6.203125 5.132812 -5.910156 5.53125 -5.328125 C 5.695312 -5.085938 5.8125 -4.816406 5.875 -4.515625 C 5.9375 -4.210938 5.96875 -3.789062 5.96875 -3.25 L 5.96875 0 L 4.515625 0 L 4.515625 -2.96875 C 4.515625 -3.71875 4.421875 -4.222656 4.234375 -4.484375 C 4.035156 -4.734375 3.742188 -4.859375 3.359375 -4.859375 C 2.878906 -4.859375 2.519531 -4.675781 2.28125 -4.3125 C 2.125 -4.050781 2.046875 -3.566406 2.046875 -2.859375 L 2.046875 0 Z M 0.59375 0 "/></g></g></g><g fill="#ffffff" fill-opacity="1"><g transform="translate(30.764847, 10.444253)"><g><path d="M 5.296875 -6.0625 L 6.6875 -6.0625 L 6.6875 -1.140625 C 6.6875 -0.0351562 6.476562 0.78125 6.0625 1.3125 C 5.476562 2.050781 4.640625 2.421875 3.546875 2.421875 C 2.796875 2.421875 2.148438 2.25 1.609375 1.90625 C 1.066406 1.570312 0.671875 1.097656 0.421875 0.484375 L 2.078125 0.484375 C 2.285156 0.722656 2.503906 0.890625 2.734375 0.984375 C 2.960938 1.085938 3.25 1.140625 3.59375 1.140625 C 4.675781 1.140625 5.242188 0.492188 5.296875 -0.796875 C 5.003906 -0.460938 4.703125 -0.222656 4.390625 -0.078125 C 4.085938 0.0664062 3.722656 0.140625 3.296875 0.140625 C 2.429688 0.140625 1.71875 -0.160156 1.15625 -0.765625 C 0.601562 -1.367188 0.328125 -2.140625 0.328125 -3.078125 C 0.328125 -3.972656 0.609375 -4.71875 1.171875 -5.3125 C 1.734375 -5.90625 2.445312 -6.203125 3.3125 -6.203125 C 4.1875 -6.203125 4.847656 -5.898438 5.296875 -5.296875 Z M 3.484375 -4.859375 C 2.972656 -4.859375 2.5625 -4.6875 2.25 -4.34375 C 1.945312 -4.007812 1.796875 -3.5625 1.796875 -3 C 1.796875 -2.445312 1.945312 -2.003906 2.25 -1.671875 C 2.5625 -1.347656 2.976562 -1.1875 3.5 -1.1875 C 4.019531 -1.1875 4.4375 -1.351562 4.75 -1.6875 C 5.070312 -2.019531 5.234375 -2.457031 5.234375 -3 C 5.234375 -3.5625 5.066406 -4.007812 4.734375 -4.34375 C 4.410156 -4.6875 3.992188 -4.859375 3.484375 -4.859375 Z M 3.484375 -4.859375 "/></g></g></g><g fill="#ffffff" fill-opacity="1"><g transform="translate(38.581177, 10.444253)"><g><path d="M 0.75 0 L 0.75 -8.078125 L 2.234375 -8.078125 L 2.234375 -4.828125 L 5.125 -4.828125 L 5.125 -8.078125 L 6.625 -8.078125 L 6.625 0 L 5.125 0 L 5.125 -3.390625 L 2.234375 -3.390625 L 2.234375 0 Z M 0.75 0 "/></g></g></g><g fill="#ffffff" fill-opacity="1"><g transform="translate(46.616291, 10.444253)"><g><path d="M 5.984375 -6.0625 L 5.984375 0 L 4.640625 0 L 4.640625 -0.578125 C 4.367188 -0.304688 4.097656 -0.117188 3.828125 -0.015625 C 3.566406 0.0859375 3.253906 0.140625 2.890625 0.140625 C 2.078125 0.140625 1.460938 -0.15625 1.046875 -0.75 C 0.878906 -1.007812 0.757812 -1.289062 0.6875 -1.59375 C 0.625 -1.894531 0.59375 -2.300781 0.59375 -2.8125 L 0.59375 -6.0625 L 2.046875 -6.0625 L 2.046875 -3.09375 C 2.046875 -2.332031 2.144531 -1.828125 2.34375 -1.578125 C 2.53125 -1.316406 2.8125 -1.1875 3.1875 -1.1875 C 3.707031 -1.1875 4.078125 -1.375 4.296875 -1.75 C 4.453125 -1.976562 4.53125 -2.460938 4.53125 -3.203125 L 4.53125 -6.0625 Z M 5.984375 -6.0625 "/></g></g></g><g fill="#ffffff" fill-opacity="1"><g transform="translate(53.776256, 10.444253)"><g><path d="M 0.59375 0 L 0.59375 -6.0625 L 2.046875 -6.0625 L 2.046875 0 Z M 0.59375 -6.71875 L 0.59375 -8.078125 L 2.046875 -8.078125 L 2.046875 -6.71875 Z M 0.59375 -6.71875 "/></g></g></g></g></g><g transform="matrix(1, 0, 0, 1, 37, 19)"><g clip-path="url(#bb133b7823)"><g fill="#ffffff" fill-opacity="1"><g transform="translate(0.593473, 10.756652)"><g><path d="M 0.765625 0 L 0.765625 -8.296875 L 3.15625 -8.296875 C 3.71875 -8.296875 4.164062 -8.25 4.5 -8.15625 C 4.84375 -8.070312 5.148438 -7.910156 5.421875 -7.671875 C 6.003906 -7.179688 6.296875 -6.503906 6.296875 -5.640625 C 6.296875 -4.816406 6.007812 -4.160156 5.4375 -3.671875 C 5.125 -3.398438 4.6875 -3.195312 4.125 -3.0625 L 6.375 0 L 4.484375 0 L 2.296875 -3.171875 L 2.296875 0 Z M 2.296875 -4.328125 L 3.046875 -4.328125 C 3.640625 -4.328125 4.070312 -4.425781 4.34375 -4.625 C 4.613281 -4.820312 4.75 -5.144531 4.75 -5.59375 C 4.75 -6.007812 4.613281 -6.320312 4.34375 -6.53125 C 4.113281 -6.726562 3.660156 -6.828125 2.984375 -6.828125 L 2.296875 -6.828125 Z M 2.296875 -4.328125 "/></g></g></g><g fill="#ffffff" fill-opacity="1"><g transform="translate(7.718472, 10.756652)"><g><path d="M 6.765625 -2.453125 L 1.953125 -2.453125 C 2.046875 -2.078125 2.242188 -1.773438 2.546875 -1.546875 C 2.859375 -1.328125 3.234375 -1.21875 3.671875 -1.21875 C 3.972656 -1.21875 4.226562 -1.265625 4.4375 -1.359375 C 4.644531 -1.453125 4.847656 -1.613281 5.046875 -1.84375 L 6.671875 -1.84375 C 6.578125 -1.5625 6.410156 -1.269531 6.171875 -0.96875 C 5.523438 -0.226562 4.703125 0.140625 3.703125 0.140625 C 2.753906 0.140625 1.957031 -0.164062 1.3125 -0.78125 C 0.664062 -1.40625 0.34375 -2.171875 0.34375 -3.078125 C 0.34375 -3.992188 0.660156 -4.769531 1.296875 -5.40625 C 1.929688 -6.039062 2.703125 -6.359375 3.609375 -6.359375 C 4.535156 -6.359375 5.300781 -6.039062 5.90625 -5.40625 C 6.519531 -4.78125 6.828125 -3.984375 6.828125 -3.015625 C 6.828125 -2.816406 6.804688 -2.628906 6.765625 -2.453125 Z M 1.90625 -3.765625 L 5.359375 -3.765625 C 5.253906 -4.160156 5.054688 -4.460938 4.765625 -4.671875 C 4.472656 -4.890625 4.097656 -5 3.640625 -5 C 2.734375 -5 2.15625 -4.585938 1.90625 -3.765625 Z M 1.90625 -3.765625 "/></g></g></g><g fill="#ffffff" fill-opacity="1"><g transform="translate(15.517225, 10.756652)"><g><path d="M 0.21875 -1.96875 L 1.71875 -1.96875 C 1.789062 -1.707031 1.890625 -1.515625 2.015625 -1.390625 C 2.148438 -1.273438 2.328125 -1.21875 2.546875 -1.21875 C 2.742188 -1.21875 2.90625 -1.273438 3.03125 -1.390625 C 3.15625 -1.515625 3.21875 -1.660156 3.21875 -1.828125 C 3.21875 -2.023438 3.125 -2.1875 2.9375 -2.3125 C 2.820312 -2.382812 2.566406 -2.488281 2.171875 -2.625 C 1.546875 -2.832031 1.097656 -3.078125 0.828125 -3.359375 C 0.566406 -3.640625 0.4375 -4.007812 0.4375 -4.46875 C 0.4375 -5 0.632812 -5.445312 1.03125 -5.8125 C 1.4375 -6.175781 1.925781 -6.359375 2.5 -6.359375 C 3.15625 -6.359375 3.6875 -6.128906 4.09375 -5.671875 C 4.375 -5.367188 4.523438 -4.976562 4.546875 -4.5 L 3.09375 -4.5 C 3.019531 -4.832031 2.820312 -5 2.5 -5 C 2.332031 -5 2.195312 -4.945312 2.09375 -4.84375 C 1.988281 -4.738281 1.9375 -4.613281 1.9375 -4.46875 C 1.9375 -4.28125 2.035156 -4.140625 2.234375 -4.046875 C 2.328125 -4.003906 2.578125 -3.921875 2.984375 -3.796875 C 3.535156 -3.617188 3.914062 -3.441406 4.125 -3.265625 C 4.519531 -2.960938 4.71875 -2.53125 4.71875 -1.96875 C 4.71875 -1.382812 4.5 -0.882812 4.0625 -0.46875 C 3.632812 -0.0625 3.109375 0.140625 2.484375 0.140625 C 2.117188 0.140625 1.769531 0.0664062 1.4375 -0.078125 C 1.101562 -0.234375 0.832031 -0.445312 0.625 -0.71875 C 0.40625 -1.007812 0.269531 -1.425781 0.21875 -1.96875 Z M 0.21875 -1.96875 "/></g></g></g><g fill="#ffffff" fill-opacity="1"><g transform="translate(21.070134, 10.756652)"><g><path d="M 6.140625 -6.21875 L 6.140625 0 L 4.765625 0 L 4.765625 -0.59375 C 4.484375 -0.3125 4.207031 -0.117188 3.9375 -0.015625 C 3.664062 0.0859375 3.34375 0.140625 2.96875 0.140625 C 2.132812 0.140625 1.503906 -0.164062 1.078125 -0.78125 C 0.898438 -1.039062 0.773438 -1.320312 0.703125 -1.625 C 0.640625 -1.9375 0.609375 -2.359375 0.609375 -2.890625 L 0.609375 -6.21875 L 2.09375 -6.21875 L 2.09375 -3.171875 C 2.09375 -2.390625 2.195312 -1.867188 2.40625 -1.609375 C 2.59375 -1.347656 2.882812 -1.21875 3.28125 -1.21875 C 3.8125 -1.21875 4.1875 -1.410156 4.40625 -1.796875 C 4.5625 -2.035156 4.640625 -2.53125 4.640625 -3.28125 L 4.640625 -6.21875 Z M 6.140625 -6.21875 "/></g></g></g><g fill="#ffffff" fill-opacity="1"><g transform="translate(28.419718, 10.756652)"><g><path d="M 0.609375 0 L 0.609375 -6.21875 L 1.96875 -6.21875 L 1.96875 -5.640625 C 2.1875 -5.898438 2.421875 -6.082031 2.671875 -6.1875 C 2.921875 -6.300781 3.226562 -6.359375 3.59375 -6.359375 C 4.40625 -6.359375 5.015625 -6.039062 5.421875 -5.40625 C 5.910156 -6.039062 6.578125 -6.359375 7.421875 -6.359375 C 7.890625 -6.359375 8.304688 -6.269531 8.671875 -6.09375 C 9.046875 -5.925781 9.332031 -5.6875 9.53125 -5.375 C 9.800781 -4.945312 9.9375 -4.351562 9.9375 -3.59375 L 9.9375 0 L 8.4375 0 L 8.4375 -3.40625 C 8.4375 -3.988281 8.34375 -4.390625 8.15625 -4.609375 C 7.945312 -4.867188 7.648438 -5 7.265625 -5 C 6.773438 -5 6.429688 -4.800781 6.234375 -4.40625 C 6.085938 -4.132812 6.015625 -3.6875 6.015625 -3.0625 L 6.015625 0 L 4.515625 0 L 4.515625 -3.40625 C 4.515625 -3.976562 4.429688 -4.378906 4.265625 -4.609375 C 4.046875 -4.867188 3.726562 -5 3.3125 -5 C 2.789062 -5 2.4375 -4.785156 2.25 -4.359375 C 2.144531 -4.085938 2.09375 -3.65625 2.09375 -3.0625 L 2.09375 0 Z M 0.609375 0 "/></g></g></g><g fill="#ffffff" fill-opacity="1"><g transform="translate(39.587241, 10.756652)"><g><path d="M 6.765625 -2.453125 L 1.953125 -2.453125 C 2.046875 -2.078125 2.242188 -1.773438 2.546875 -1.546875 C 2.859375 -1.328125 3.234375 -1.21875 3.671875 -1.21875 C 3.972656 -1.21875 4.226562 -1.265625 4.4375 -1.359375 C 4.644531 -1.453125 4.847656 -1.613281 5.046875 -1.84375 L 6.671875 -1.84375 C 6.578125 -1.5625 6.410156 -1.269531 6.171875 -0.96875 C 5.523438 -0.226562 4.703125 0.140625 3.703125 0.140625 C 2.753906 0.140625 1.957031 -0.164062 1.3125 -0.78125 C 0.664062 -1.40625 0.34375 -2.171875 0.34375 -3.078125 C 0.34375 -3.992188 0.660156 -4.769531 1.296875 -5.40625 C 1.929688 -6.039062 2.703125 -6.359375 3.609375 -6.359375 C 4.535156 -6.359375 5.300781 -6.039062 5.90625 -5.40625 C 6.519531 -4.78125 6.828125 -3.984375 6.828125 -3.015625 C 6.828125 -2.816406 6.804688 -2.628906 6.765625 -2.453125 Z M 1.90625 -3.765625 L 5.359375 -3.765625 C 5.253906 -4.160156 5.054688 -4.460938 4.765625 -4.671875 C 4.472656 -4.890625 4.097656 -5 3.640625 -5 C 2.734375 -5 2.15625 -4.585938 1.90625 -3.765625 Z M 1.90625 -3.765625 "/></g></g></g></g></g><g clip-path="url(#e9bfbbf379)"><path fill="#6b64ff" d="M 21.9375 8.507812 C 21.601562 8.171875 21.054688 8.171875 20.71875 8.507812 C 20.382812 8.84375 20.382812 9.390625 20.71875 9.726562 L 21.367188 10.375 L 17.945312 12.964844 C 16.523438 12.546875 14.917969 12.898438 13.796875 14.019531 L 12.570312 15.246094 C 12.40625 15.40625 12.316406 15.628906 12.316406 15.855469 C 12.316406 16.085938 12.40625 16.304688 12.570312 16.464844 L 14.171875 18.070312 L 10.328125 24.789062 C 10.136719 25.125 10.191406 25.550781 10.46875 25.824219 C 10.632812 25.992188 10.855469 26.078125 11.078125 26.078125 C 11.226562 26.078125 11.371094 26.042969 11.507812 25.964844 L 18.226562 22.121094 L 19.828125 23.726562 C 19.996094 23.894531 20.21875 23.976562 20.4375 23.976562 C 20.660156 23.976562 20.878906 23.894531 21.046875 23.726562 L 22.273438 22.5 C 23.398438 21.375 23.75 19.769531 23.328125 18.347656 L 25.917969 14.925781 L 26.566406 15.574219 C 26.734375 15.742188 26.957031 15.828125 27.175781 15.828125 C 27.398438 15.828125 27.617188 15.742188 27.789062 15.574219 C 28.125 15.238281 28.125 14.691406 27.789062 14.355469 Z M 13.398438 22.894531 L 15.4375 19.332031 L 16.960938 20.859375 Z M 21.054688 21.277344 L 20.4375 21.894531 L 14.398438 15.855469 L 15.015625 15.238281 C 15.976562 14.277344 17.539062 14.277344 18.5 15.238281 L 21.054688 17.792969 C 22.015625 18.753906 22.015625 20.316406 21.054688 21.277344 Z M 22.402344 16.714844 C 22.359375 16.667969 19.625 13.933594 19.578125 13.890625 L 22.597656 11.605469 L 24.6875 13.695312 Z M 22.402344 16.714844 " fill-opacity="1" fill-rule="nonzero"/></g></svg>